<svg width="118" height="36" viewBox="0 0 118 36" fill="none" xmlns="http://www.w3.org/2000/svg">
<path d="M59.9915 29.1674H55.824V18.9547C55.824 16.3258 54.7988 15.129 52.5103 15.129C49.9478 15.129 48.3091 16.6312 48.3091 19.1938V29.1674H44.1416V4.1626H48.3091V14.3027C49.2993 12.3899 51.3486 11.2983 53.9425 11.2983C57.7344 11.2983 59.989 13.6893 59.989 17.8906L59.9915 29.1674Z" fill="#22263C"/>
<path d="M81.9576 11.7819V29.1679H77.8577V26.4013C76.8637 28.4493 74.544 29.6473 71.9138 29.6473C67.3032 29.6473 63.9219 25.8554 63.9219 20.4924C63.9219 15.0944 67.3019 11.3037 71.9138 11.3037C74.5427 11.3037 76.8675 12.533 77.8577 14.5824V11.7819H81.9576ZM73.0693 15.0944C70.0973 15.0944 68.187 17.2463 68.187 20.4924C68.187 23.6684 70.0998 25.8554 73.0693 25.8554C76.0387 25.8554 77.9516 23.6684 77.9516 20.4924C77.9603 17.2463 76.0475 15.0944 73.0755 15.0944H73.0693Z" fill="#22263C"/>
<path d="M97.1919 29.647C94.5968 29.647 92.376 28.4502 91.3169 26.5035V36.0002H87.1494V11.7816H91.2493V14.582C92.2395 12.5327 94.5617 11.2983 97.1919 11.2983C101.804 11.2983 105.186 15.089 105.186 20.4871C105.186 25.8551 101.804 29.647 97.1919 29.647ZM96.0314 15.094C93.0595 15.094 91.1491 17.246 91.1491 20.4921C91.1491 23.6681 93.062 25.8551 96.0314 25.8551C99.0009 25.8551 100.914 23.6681 100.914 20.4921C100.914 17.3161 99.0034 15.094 96.0314 15.094Z" fill="#22263C"/>
<path d="M111.404 3.68506C112.94 3.68506 114.032 4.77794 114.032 6.28144C114.032 7.78493 112.938 8.87656 111.404 8.87656C109.797 8.87656 108.738 7.78368 108.738 6.28144C108.738 4.77919 109.797 3.68506 111.404 3.68506ZM109.319 11.7809H113.487V29.1669H109.319V11.7809Z" fill="#22263C"/>
<path d="M26.5 10.1722C27.5436 10.8508 28.2748 11.9161 28.5331 13.1338C28.7913 14.3515 28.5553 15.6219 27.8771 16.6656L21.0419 27.1813C20.7061 27.6981 20.2718 28.1437 19.7638 28.4926C19.2557 28.8415 18.6839 29.0869 18.0811 29.2148C17.4782 29.3426 16.856 29.3505 16.2501 29.2379C15.6442 29.1252 15.0664 28.8944 14.5497 28.5584C14.0329 28.2225 13.5873 27.788 13.2384 27.2799C12.8894 26.7718 12.644 26.1999 12.5162 25.5969C12.3883 24.9939 12.3805 24.3716 12.4931 23.7656C12.6057 23.1596 12.8366 22.5817 13.1726 22.0649L20.0066 11.5492C20.6852 10.5057 21.7505 9.77445 22.9682 9.51621C24.1859 9.25798 25.4563 9.49393 26.5 10.1722Z" fill="#ECEDF3"/>
<path d="M32.6221 28.9117C32.0901 29.2223 31.5021 29.425 30.8917 29.5082C30.2813 29.5914 29.6605 29.5535 29.0648 29.3966C28.4691 29.2398 27.9101 28.9671 27.4198 28.5941C26.9295 28.2211 26.5176 27.7552 26.2075 27.2229L19.8905 16.3892C19.5802 15.8571 19.3778 15.269 19.2948 14.6586C19.2117 14.0482 19.2497 13.4275 19.4066 12.8318C19.5635 12.236 19.8362 11.6771 20.2091 11.1867C20.582 10.6964 21.0478 10.2843 21.5799 9.97404C22.1121 9.66374 22.7002 9.46129 23.3106 9.37826C23.9209 9.29522 24.5417 9.33323 25.1374 9.49011C25.7331 9.64698 26.2921 9.91965 26.7824 10.2926C27.2728 10.6655 27.6848 11.1313 27.9951 11.6634L34.3121 22.4971C34.6224 23.0292 34.8249 23.6173 34.9079 24.2277C34.991 24.8381 34.9529 25.4588 34.796 26.0545C34.6391 26.6502 34.3663 27.2091 33.9933 27.6994C33.6203 28.1896 33.1543 28.6016 32.6221 28.9117Z" fill="#2BE1EF"/>
<mask id="mask0_1029_4152" style="mask-type:luminance" maskUnits="userSpaceOnUse" x="0" y="0" width="22" height="30">
<path d="M2.82793 0.640941C2.29568 0.951401 1.8298 1.36366 1.45688 1.85417C1.08397 2.34468 0.811316 2.90384 0.654498 3.49972C0.497681 4.0956 0.459768 4.71654 0.542926 5.32707C0.626084 5.93761 0.828683 6.52579 1.13916 7.05802L12.9217 27.2569C13.5488 28.3322 14.5772 29.1143 15.7809 29.4312C16.9846 29.7482 18.2648 29.574 19.3401 28.947C20.4153 28.3199 21.1974 27.2915 21.5144 26.0878C21.8313 24.8841 21.6571 23.6039 21.0301 22.5286L9.24626 2.32846C8.93593 1.79591 8.52367 1.32976 8.03304 0.956669C7.54241 0.58358 6.98304 0.310871 6.38693 0.154141C5.79082 -0.00258999 5.16965 -0.040268 4.55897 0.0432615C3.94828 0.126791 3.36006 0.329889 2.82793 0.640941Z" fill="white"/>
</mask>
<g mask="url(#mask0_1029_4152)">
<path d="M-0.165813 30.2525L43.3003 66.618L22.3353 -0.00017544L-21.1309 -36.3657L-0.165813 30.2525Z" fill="#4C58ED"/>
</g>
</svg>
